<svg id="Layer_1" data-name="Layer 1" xmlns="http://www.w3.org/2000/svg" viewBox="0 0 900 560"  ><defs><style> .cls-1{fill:#fff100;}.cls-2{fill:#171717;}.cls-3{fill:#f6f6f6;}.cls-4{fill:#939597;}</style></defs><path class="cls-1" d="M491.86,255.23A45.83,45.83,0,0,1,447,301.31l-.6,0-.1-14.83c1,0,2-.06,2.91-.16A31,31,0,1,0,417,244.9a1.43,1.43,0,0,0-.08.22c0,.06-.05.13-.07.2s-.14.42-.22.63l-14.38,0h-.94a6.4,6.4,0,0,1,.14-.63.65.65,0,0,1,0-.2,1.17,1.17,0,0,1,0-.2,45.79,45.79,0,0,1,90.33,10.35Z"/><rect class="cls-2" x="438.35" y="274.52" width="11.15" height="35.99" rx="5.48" transform="translate(49.94 -64.44) rotate(8.8)"/><polygon class="cls-3" points="369.86 273 387.5 273.15 391.35 246.5 373.71 246.34 369.86 273"/><path class="cls-3" d="M373.51,246.12l-3.92,27.11,2.94,0,15.16.13L391.22,249l.39-2.73Zm-.91,26.68-2.49,0,3.79-26.21,17.19.16-.33,2.28-3.46,23.92Z"/><polygon class="cls-3" points="397.53 273 415.17 273.15 419.03 246.5 401.39 246.34 397.53 273"/><path class="cls-3" d="M401.19,246.12l-.41,2.85-3.51,24.26,18.09.16,3.54-24.5.38-2.61Zm-3.4,26.66L401.23,249l.35-2.4,17.18.16-.31,2.17-3.48,24Z"/><polygon class="cls-3" points="425.21 273 442.85 273.15 446.7 246.5 429.06 246.34 425.21 273"/><path class="cls-3" d="M428.86,246.12l-.4,2.73-3.52,24.38,15.39.14,2.71,0L447,246.28Zm11.54,26.79-14.94-.13,3.46-23.93.33-2.28,17.19.16-3.79,26.2Z"/><polygon class="cls-3" points="365.01 304.95 382.65 305.1 386.5 278.45 368.86 278.29 365.01 304.95"/><path class="cls-3" d="M371.83,278.1l-3.17,0-3.92,27.11,3.12,0,15,.13,3.92-27.11Zm-3.9,26.65-2.67,0,3.79-26.21,2.71,0,14.48.13-3.79,26.2Z"/><polygon class="cls-3" points="392.68 304.95 410.32 305.1 414.18 278.45 396.54 278.29 392.68 304.95"/><path class="cls-3" d="M396.34,278.07l-3.92,27.11,18.09.16,3.93-27.11Zm-3.4,26.66,3.79-26.21,17.18.16-3.79,26.2Z"/><polygon class="cls-3" points="420.36 304.95 438 305.1 441.85 278.45 424.21 278.29 420.36 304.95"/><path class="cls-3" d="M439.6,278.21,424,278.07l-3.92,27.11,15.41.14,2.69,0,3.92-27.11Zm-4,26.65-15-.13,3.79-26.21,15.13.14,2.06,0-3.79,26.2Z"/><polygon class="cls-3" points="360.61 336 378.25 336.15 382.1 309.5 364.46 309.34 360.61 336"/><path class="cls-3" d="M367.29,309.15l-3,0-3.92,27.11,18.1.16.44-3.07,3.48-24Zm-6.43,26.63,3.79-26.21,2.57,0,14.62.14-3.41,23.59-.38,2.61Z"/><polygon class="cls-3" points="388.28 336 405.92 336.15 409.78 309.5 392.14 309.34 388.28 336"/><path class="cls-3" d="M391.94,309.12l-3.5,24.22-.42,2.89,18.1.16.44-3L410,309.28Zm-3.4,26.66.35-2.44,3.44-23.77,17.18.16-3.42,23.64-.37,2.56Z"/><polygon class="cls-3" points="415.96 336 433.6 336.15 437.45 309.5 419.81 309.34 415.96 336"/><path class="cls-3" d="M434.9,309.26l-15.29-.14-3.51,24.27-.41,2.84,18.1.16,3.92-27.11Zm-18.69,26.52.35-2.39L420,309.57l14.84.14,2.35,0-3.79,26.2Z"/><path class="cls-3" d="M371.74,244.08,358,338.27l77.58.16,14.32-94.66Zm34.35,89.29-17.2,0h-.45l-9.56,0h-.45l-14.67,0,3.46-23.7,0-.22,0-.22.57-3.94,0-.23,0-.23,3.83-26.2,0-.23,0-.22.7-4.84,0-.24,0-.22,3.47-23.73,14.69-.06h.46l9.56,0h.45l17.22-.07h.45l9.56,0h.46l15.13-.06-3.65,24.12,0,.23,0,.23-.73,4.84,0,.22,0,.23-4,26.2,0,.23,0,.23-.6,3.94,0,.22,0,.23-3.59,23.71-14.69,0h-.46l-9.54,0Z"/><path class="cls-4" d="M439.6,278.21l.73-4.84-15.39-.14,3.52-24.38-9.56,0-3.54,24.5-18.09-.16L400.78,249l-9.56,0-3.53,24.38-15.16-.13-.7,4.84,14.93.13-3.92,27.11-15-.13-.57,3.94,15.07.13-3.48,24,9.56,0,3.5-24.22,18.1.16-3.48,24.09,9.54,0,3.51-24.27,15.29.14.6-3.94-15.41-.14L424,278.07Zm-29.09,27.13-18.09-.16,3.92-27.11,18.1.16Z" width="200px"/></svg>